<?xml version="1.0" encoding="UTF-8"?>
<!DOCTYPE svg PUBLIC "-//W3C//DTD SVG 1.1//EN" "http://www.w3.org/Graphics/SVG/1.1/DTD/svg11.dtd">
<!-- Creator: CorelDRAW 2018 (64-Bit) -->
<svg xmlns="http://www.w3.org/2000/svg" xml:space="preserve" width="300px" height="80px" version="1.1" style="shape-rendering:geometricPrecision; text-rendering:geometricPrecision; image-rendering:optimizeQuality; fill-rule:evenodd; clip-rule:evenodd"
viewBox="0 0 300 80"
 xmlns:xlink="http://www.w3.org/1999/xlink">
 <defs>
  <style type="text/css">
   <![CDATA[
    .fil0 {fill:black;fill-rule:nonzero}
   ]]>
  </style>
 </defs>
 <g id="Livello_x0020_1">
  <metadata id="CorelCorpID_0Corel-Layer"/>
  <g id="_2098174375888">
   <polygon class="fil0" points="298.46,6.57 298.46,3.19 1.54,3.19 1.54,6.57 "/>
   <polygon class="fil0" points="1.54,17.51 1.54,20.98 24.96,20.98 24.96,76.81 28.33,76.81 28.33,20.98 51.74,20.98 51.74,17.51 "/>
   <path class="fil0" d="M73.73 26.09c-3.48,2.66 -6.24,5.83 -8.08,9.41 -1.94,3.68 -2.96,7.57 -2.96,11.66 0,3.98 1.02,7.87 2.96,11.55 1.84,3.58 4.6,6.75 8.08,9.51 3.37,2.66 7.36,4.8 11.76,6.23 4.6,1.54 9.4,2.36 14.31,2.36 5.01,0 9.81,-0.82 14.42,-2.36 4.39,-1.43 8.38,-3.57 11.75,-6.23 3.48,-2.76 6.14,-5.93 8.08,-9.51 1.94,-3.68 2.97,-7.57 2.97,-11.55 0,-4.09 -1.03,-7.98 -2.97,-11.66 -1.94,-3.58 -4.6,-6.75 -8.08,-9.41 -3.37,-2.76 -7.36,-4.8 -11.75,-6.33 -4.61,-1.54 -9.41,-2.25 -14.42,-2.25 -4.91,0 -9.71,0.71 -14.31,2.25 -4.4,1.53 -8.39,3.57 -11.76,6.33zm-5.01 10.94l0 0c1.74,-3.17 4.09,-5.82 7.15,-8.28 3.17,-2.45 6.75,-4.39 10.74,-5.72 4.19,-1.43 8.69,-2.05 13.19,-2.05 4.6,0 9.1,0.62 13.29,2.05 3.99,1.33 7.57,3.27 10.74,5.72 3.06,2.46 5.42,5.11 7.15,8.28 1.64,3.28 2.56,6.55 2.56,10.13 0,3.47 -0.92,6.85 -2.56,10.02 -1.73,3.17 -4.09,5.93 -7.15,8.38 -3.17,2.35 -6.75,4.29 -10.74,5.62 -4.19,1.43 -8.69,2.15 -13.29,2.15 -4.5,0 -9,-0.72 -13.19,-2.15 -3.99,-1.33 -7.57,-3.27 -10.74,-5.62 -3.06,-2.45 -5.41,-5.21 -7.15,-8.38 -1.74,-3.17 -2.66,-6.55 -2.66,-10.02 0,-3.58 0.92,-6.85 2.66,-10.13z"/>
   <polygon class="fil0" points="147.96,76.81 151.23,76.81 151.23,29.37 181.59,76.81 214.92,28.65 214.92,76.81 218.3,76.81 218.3,17.51 181.7,70.67 147.85,17.51 "/>
   <polygon class="fil0" points="229.14,76.81 233.33,76.81 266.25,24.87 294.47,76.81 298.46,76.81 266.15,17.51 "/>
  </g>
 </g>
</svg>
